<?xml version="1.0" encoding="UTF-8" standalone="no"?>
<svg
   xmlns:osb="http://www.openswatchbook.org/uri/2009/osb"
   xmlns:dc="http://purl.org/dc/elements/1.1/"
   xmlns:cc="http://creativecommons.org/ns#"
   xmlns:rdf="http://www.w3.org/1999/02/22-rdf-syntax-ns#"
   xmlns:svg="http://www.w3.org/2000/svg"
   xmlns="http://www.w3.org/2000/svg"
   xmlns:xlink="http://www.w3.org/1999/xlink"
   xmlns:sodipodi="http://sodipodi.sourceforge.net/DTD/sodipodi-0.dtd"
   xmlns:inkscape="http://www.inkscape.org/namespaces/inkscape"
   width="210mm"
   height="297mm"
   viewBox="0 0 210 297"
   version="1.1"
   id="svg8"
   sodipodi:docname="Logo design inkscape.svg"
   inkscape:version="1.0.2 (e86c870879, 2021-01-15)">
  <defs
     id="defs2">
    <linearGradient
       inkscape:collect="always"
       id="linearGradient4787">
      <stop
         style="stop-color:#2b1100;stop-opacity:1;"
         offset="0"
         id="stop4791" />
      <stop
         style="stop-color:#000000;stop-opacity:0"
         offset="1"
         id="stop4793" />
    </linearGradient>
    <linearGradient
       id="linearGradient4769"
       osb:paint="solid">
      <stop
         style="stop-color:#2b1100;stop-opacity:1;"
         offset="0"
         id="stop4767" />
    </linearGradient>
    <linearGradient
       id="linearGradient4739"
       osb:paint="solid">
      <stop
         style="stop-color:#88aa00;stop-opacity:1;"
         offset="0"
         id="stop4737" />
    </linearGradient>
    <linearGradient
       id="linearGradient4729"
       osb:paint="solid">
      <stop
         style="stop-color:#88aa00;stop-opacity:1;"
         offset="0"
         id="stop4727" />
    </linearGradient>
    <linearGradient
       id="linearGradient3038"
       osb:paint="solid">
      <stop
         style="stop-color:#2d1e2f;stop-opacity:1;"
         offset="0"
         id="stop3036" />
    </linearGradient>
    <linearGradient
       inkscape:collect="always"
       xlink:href="#linearGradient4787"
       id="linearGradient4789"
       x1="56.365688"
       y1="168.71613"
       x2="87.366173"
       y2="110.37459"
       gradientUnits="userSpaceOnUse" />
  </defs>
  <sodipodi:namedview
     id="base"
     pagecolor="#ffffff"
     bordercolor="#666666"
     borderopacity="1.0"
     inkscape:pageopacity="0.0"
     inkscape:pageshadow="2"
     inkscape:zoom="1"
     inkscape:cx="200.75635"
     inkscape:cy="646.42512"
     inkscape:document-units="mm"
     inkscape:current-layer="layer1"
     inkscape:document-rotation="0"
     showgrid="false"
     showguides="true"
     inkscape:guide-bbox="true"
     inkscape:snap-nodes="true"
     inkscape:snap-grids="false"
     inkscape:snap-object-midpoints="false"
     inkscape:snap-others="true"
     inkscape:snap-bbox="false"
     inkscape:window-width="1278"
     inkscape:window-height="1045"
     inkscape:window-x="1280"
     inkscape:window-y="0"
     inkscape:window-maximized="0">
    <sodipodi:guide
       position="11.76886,205.85216"
       orientation="0,-1"
       id="guide256" />
    <sodipodi:guide
       position="250.82131,264.19838"
       orientation="0,-1"
       id="guide258" />
    <sodipodi:guide
       position="11.76886,205.85216"
       orientation="1,0"
       id="guide260" />
    <sodipodi:guide
       position="42.76935,264.19369"
       orientation="1,0"
       id="guide262" />
    <inkscape:grid
       type="xygrid"
       id="grid264" />
    <sodipodi:guide
       position="56.365688,205.85285"
       orientation="1,0"
       id="guide1518" />
    <sodipodi:guide
       position="87.366176,264.19439"
       orientation="1,0"
       id="guide1520" />
    <sodipodi:guide
       position="102.60837,205.85285"
       orientation="1,0"
       id="guide1600" />
    <sodipodi:guide
       position="133.60886,264.19439"
       orientation="1,0"
       id="guide1602" />
    <sodipodi:guide
       position="150.16812,205.85217"
       orientation="1,0"
       id="guide1654" />
    <sodipodi:guide
       position="181.16861,264.1937"
       orientation="1,0"
       id="guide1656" />
    <sodipodi:guide
       position="42.76935,186.62541"
       orientation="0,-1"
       id="guide176" />
    <sodipodi:guide
       position="11.76886,128.28388"
       orientation="0,-1"
       id="guide178" />
  </sodipodi:namedview>
  <metadata
     id="metadata5">
    <rdf:RDF>
      <cc:Work
         rdf:about="">
        <dc:format>image/svg+xml</dc:format>
        <dc:type
           rdf:resource="http://purl.org/dc/dcmitype/StillImage" />
      </cc:Work>
    </rdf:RDF>
  </metadata>
  <g
     inkscape:label="Layer 1"
     inkscape:groupmode="layer"
     id="layer1">
    <g
       id="g1472"
       style="stroke-width:0;stroke-miterlimit:4;stroke-dasharray:none">
      <path
         style="fill:#000000;stroke:#000000;stroke-width:0;stroke-miterlimit:4;stroke-dasharray:none"
         id="path170"
         d="m 40.37677,32.801621 c -0.007,0.725815 -0.0238,1.451278 -0.0478,2.176396 -0.0242,0.763695 -0.0669,1.525841 -0.11749,2.287051 -0.0437,0.651843 -0.097,1.302382 -0.15821,1.951603 -0.0631,0.650665 -0.13776,1.299093 -0.21568,1.94675 -0.0662,0.550265 -0.14459,1.097504 -0.22825,1.643301 -0.11689,0.756167 -0.24964,1.507494 -0.38988,2.256246 -0.12177,0.658483 -0.26506,1.308926 -0.41403,1.956857 -0.18604,0.816664 -0.40887,1.616482 -0.63909,2.411759 -0.21593,0.741763 -0.44806,1.474228 -0.70248,2.193151 -0.27342,0.769112 -0.58115,1.512738 -0.90962,2.2406 -0.44014,0.978387 -0.94469,1.898135 -1.46835,2.796222 -0.30645,0.51797 -0.61913,1.029713 -0.96688,1.497791 -0.46094,0.593534 -0.94425,1.155093 -1.4375,1.698571 -0.42143,0.445085 -0.8646,0.852087 -1.32051,1.229151 -0.44858,0.352303 -0.90439,0.68992 -1.37602,0.982191 -0.64016,0.370787 -1.29553,0.689971 -1.96218,0.960624 -0.68986,0.263969 -1.39198,0.46557 -2.09975,0.617194 -0.73168,0.134107 -1.468,0.212762 -2.20102,0.332026 -0.68978,0.120045 -1.37485,0.288014 -2.041,0.559587 -0.74511,0.318459 -1.46401,0.727253 -2.161,1.203341 -0.44165,0.299353 -0.855,0.663718 -1.25387,1.056324 -0.26681,0.262559 -0.51921,0.550454 -0.76513,0.84775 -0.23581,0.284593 -0.45672,0.590216 -0.67349,0.901033 -0.24568,0.353403 -0.47957,0.721273 -0.70374,1.099913 -0.24123,0.405948 -0.46127,0.833598 -0.67868,1.263206 -0.25524,0.507521 -0.48188,1.039341 -0.70065,1.576759 -0.24278,0.597344 -0.46605,1.208508 -0.67828,1.826696 -0.19569,0.5767 -0.36425,1.16931 -0.52917,1.76313 -0.13029,0.46892 -0.25121,0.94241 -0.36489,1.41917 -0.0678,0.28548 -0.13043,0.57314 -0.1911,0.86153 -0.0538,0.25721 -0.10496,0.51544 -0.15477,0.77413 -0.0566,0.29497 -0.10987,0.59111 -0.162,0.8876 -0.0706,0.40566 -0.13617,0.812904 -0.19938,1.220791 -0.0458,0.29617 -0.0876,0.59339 -0.12753,0.8911 -0.0488,0.36424 -0.0925,0.729646 -0.13548,1.095226 -0.0598,0.50635 -0.11109,1.01443 -0.15944,1.523 -0.0455,0.48633 -0.0853,0.97361 -0.12037,1.46151 -0.037,0.52963 -0.0655,1.06022 -0.0912,1.59105 -0.0372,0.78181 -0.0469,1.56544 -0.057,2.34858 -0.004,0.33241 -0.007,0.66486 -0.005,0.99731 0,0 2.3926,-0.002 2.3926,-0.002 v 0 c -0.002,-0.32968 0.002,-0.65935 0.005,-0.989 0.01,-0.77791 0.0197,-1.55633 0.0569,-2.3329 0.0257,-0.52738 0.0542,-1.05454 0.0912,-1.5807 0.0351,-0.48456 0.0748,-0.96852 0.12028,-1.4515 0.0483,-0.50536 0.0996,-1.01021 0.15933,-1.51336 0.0428,-0.36317 0.0866,-0.726166 0.1354,-1.087966 0.0399,-0.29478 0.0817,-0.58905 0.1274,-0.8823 0.0632,-0.404957 0.12853,-0.809341 0.19924,-1.212021 0.0521,-0.29416 0.10521,-0.58799 0.16187,-0.88059 0.0498,-0.25622 0.10077,-0.51201 0.15462,-0.76672 0.0605,-0.28462 0.12318,-0.56843 0.19085,-0.85011 0.11386,-0.47155 0.23485,-0.93985 0.36451,-1.40387 0.16426,-0.58589 0.33205,-1.17061 0.52844,-1.738396 0.21225,-0.610565 0.43539,-1.214132 0.67749,-1.804097 0.21821,-0.527311 0.44432,-1.048944 0.69936,-1.545501 0.21626,-0.421978 0.4364,-0.840703 0.67747,-1.237581 0.22485,-0.368921 0.45751,-0.72904 0.70235,-1.073931 0.216,-0.301941 0.43676,-0.597756 0.6718,-0.872696 0.24554,-0.286406 0.49741,-0.56302 0.76294,-0.814989 0.39824,-0.375686 0.81265,-0.717988 1.24994,-1.004704 0.69625,-0.455178 1.41345,-0.847819 2.15572,-1.144324 0.66827,-0.238313 1.34913,-0.401816 2.03579,-0.508474 0.73454,-0.111969 1.47224,-0.192071 2.20272,-0.3481 0.70922,-0.169788 1.4143,-0.376833 2.10403,-0.660243 0.66778,-0.288354 1.32816,-0.611944 1.96625,-1.00652 0.47028,-0.312278 0.93222,-0.64873 1.37898,-1.019434 0.45601,-0.394024 0.90402,-0.807339 1.32345,-1.271023 0.49406,-0.555305 0.98323,-1.121044 1.43963,-1.73337 0.34334,-0.486782 0.66046,-1.005424 0.96878,-1.533354 0.52467,-0.911085 1.02924,-1.844438 1.47009,-2.83515 0.32854,-0.739187 0.63641,-1.494235 0.91081,-2.27342 0.25356,-0.72743 0.48622,-1.467495 0.70319,-2.216411 0.23058,-0.803003 0.45347,-1.610597 0.63966,-2.434914 0.14926,-0.653654 0.29218,-1.310041 0.41438,-1.97411 0.14032,-0.753521 0.27314,-1.509611 0.39012,-2.2705 0.0837,-0.550441 0.16216,-1.102299 0.22844,-1.657143 0.0781,-0.651388 0.1528,-1.30356 0.2158,-1.957986 0.0612,-0.653271 0.11443,-1.307826 0.15831,-1.963676 0.0506,-0.766069 0.0933,-1.53307 0.11755,-2.301603 0.0239,-0.7286 0.0409,-1.457546 0.0478,-2.186843 0,0 -2.3926,-0.004 -2.3926,-0.004 z" />
      <circle
         style="fill:#000000;stroke:#000000;stroke-width:0;stroke-miterlimit:4;stroke-dasharray:none"
         id="path172"
         cx="23.596727"
         cy="57.278996"
         r="4.0660758" />
      <circle
         style="fill:#000000;stroke:#000000;stroke-width:0;stroke-miterlimit:4;stroke-dasharray:none"
         id="path172-7"
         cx="23.914232"
         cy="82.09024"
         r="6.8275914" />
      <circle
         style="fill:#000000;stroke:#000000;stroke-width:0;stroke-miterlimit:4;stroke-dasharray:none"
         id="path172-5"
         cx="29.304995"
         cy="43.942768"
         r="8.6318245" />
      <circle
         style="fill:#000000;stroke:#000000;stroke-width:0;stroke-miterlimit:4;stroke-dasharray:none"
         id="path172-7-3"
         cx="25.206804"
         cy="70.060249"
         r="3.071032" />
      <circle
         style="fill:#000000;stroke:#000000;stroke-width:0;stroke-miterlimit:4;stroke-dasharray:none"
         id="path172-7-3-5"
         cx="34.661209"
         cy="72.856979"
         r="4.7536888" />
    </g>
    <g
       id="g1552">
      <path
         style="fill:#2d1e2f;stroke:#000000;stroke-width:0;stroke-miterlimit:4;stroke-dasharray:none;fill-opacity:1"
         id="path170-3"
         d="m 84.973598,32.800931 c -0.007,0.725815 -0.0238,1.451278 -0.0478,2.176396 -0.0242,0.763695 -0.0669,1.525841 -0.11749,2.287051 -0.0437,0.651843 -0.097,1.302382 -0.15821,1.951603 -0.0631,0.650665 -0.13776,1.299093 -0.21568,1.94675 -0.0662,0.550265 -0.14459,1.097504 -0.22825,1.643301 -0.11689,0.756167 -0.24964,1.507494 -0.38988,2.256246 -0.12177,0.658483 -0.26506,1.308926 -0.41403,1.956857 -0.18604,0.816664 -0.40887,1.616482 -0.63909,2.411759 -0.21593,0.741763 -0.44806,1.474228 -0.70248,2.193151 -0.27342,0.769112 -0.58115,1.512738 -0.90962,2.2406 -0.44014,0.978387 -0.94469,1.898135 -1.46835,2.796222 -0.30645,0.51797 -0.61913,1.029713 -0.96688,1.497791 -0.46094,0.593534 -0.94425,1.155093 -1.4375,1.698571 -0.42143,0.445085 -0.8646,0.852087 -1.32051,1.229151 -0.44858,0.352303 -0.90439,0.68992 -1.37602,0.982191 -0.64016,0.370787 -1.29553,0.689971 -1.96218,0.960624 -0.68986,0.263969 -1.39198,0.46557 -2.09975,0.617194 -0.73168,0.134107 -1.468,0.212762 -2.20102,0.332026 -0.68978,0.120045 -1.37485,0.288014 -2.041,0.559587 -0.74511,0.318459 -1.46401,0.727253 -2.161,1.203341 -0.44165,0.299353 -0.855,0.663718 -1.25387,1.056324 -0.26681,0.262559 -0.51921,0.550454 -0.76513,0.84775 -0.23581,0.284593 -0.45672,0.590216 -0.67349,0.901033 -0.24568,0.353403 -0.47957,0.721273 -0.70374,1.099913 -0.24123,0.405948 -0.46127,0.833598 -0.67868,1.263206 -0.25524,0.507521 -0.48188,1.039341 -0.70065,1.576759 -0.24278,0.597344 -0.46605,1.208508 -0.67828,1.826696 -0.19569,0.5767 -0.36425,1.16931 -0.52917,1.76313 -0.13029,0.46892 -0.25121,0.94241 -0.36489,1.41917 -0.0678,0.28548 -0.13043,0.57314 -0.1911,0.86153 -0.0538,0.25721 -0.10496,0.51544 -0.15477,0.77413 -0.0566,0.29497 -0.10987,0.59111 -0.162,0.8876 -0.0706,0.40566 -0.13617,0.812904 -0.19938,1.220791 -0.0458,0.29617 -0.0876,0.59339 -0.12753,0.8911 -0.0488,0.36424 -0.0925,0.729646 -0.13548,1.095226 -0.0598,0.50635 -0.11109,1.01443 -0.15944,1.523 -0.0455,0.48633 -0.0853,0.97361 -0.12037,1.46151 -0.037,0.52963 -0.0655,1.06022 -0.0912,1.59105 -0.0372,0.78181 -0.0469,1.56544 -0.057,2.34858 -0.004,0.33241 -0.007,0.66486 -0.005,0.99731 0,0 2.3926,-0.002 2.3926,-0.002 v 0 c -0.002,-0.32968 0.002,-0.65935 0.005,-0.989 0.01,-0.77791 0.0197,-1.55633 0.0569,-2.3329 0.0257,-0.52738 0.0542,-1.05454 0.0912,-1.5807 0.0351,-0.48456 0.0748,-0.96852 0.12028,-1.4515 0.0483,-0.50536 0.0996,-1.01021 0.15933,-1.51336 0.0428,-0.36317 0.0866,-0.726166 0.1354,-1.087966 0.0399,-0.29478 0.0817,-0.58905 0.1274,-0.8823 0.0632,-0.404957 0.12853,-0.809341 0.19924,-1.212021 0.0521,-0.29416 0.10521,-0.58799 0.16187,-0.88059 0.0498,-0.25622 0.10077,-0.51201 0.15462,-0.76672 0.0605,-0.28462 0.12318,-0.56843 0.19085,-0.85011 0.11386,-0.47155 0.23485,-0.93985 0.36451,-1.40387 0.16426,-0.58589 0.33205,-1.17061 0.52844,-1.738396 0.21225,-0.610565 0.43539,-1.214132 0.67749,-1.804097 0.21821,-0.527311 0.44432,-1.048944 0.69936,-1.545501 0.21626,-0.421978 0.4364,-0.840703 0.67747,-1.237581 0.22485,-0.368921 0.45751,-0.72904 0.70235,-1.073931 0.216,-0.301941 0.43676,-0.597756 0.6718,-0.872696 0.24554,-0.286406 0.49741,-0.56302 0.76294,-0.814989 0.39824,-0.375686 0.81265,-0.717988 1.24994,-1.004704 0.69625,-0.455178 1.41345,-0.847819 2.15572,-1.144324 0.66827,-0.238313 1.34913,-0.401816 2.03579,-0.508474 0.73454,-0.111969 1.47224,-0.192071 2.20272,-0.3481 0.70922,-0.169788 1.4143,-0.376833 2.10403,-0.660243 0.66778,-0.288354 1.32816,-0.611944 1.96625,-1.00652 0.47028,-0.312278 0.93222,-0.64873 1.37898,-1.019434 0.45601,-0.394024 0.90402,-0.807339 1.32345,-1.271023 0.49406,-0.555305 0.98323,-1.121044 1.43963,-1.73337 0.34334,-0.486782 0.66046,-1.005424 0.96878,-1.533354 0.52467,-0.911085 1.02924,-1.844438 1.47009,-2.83515 0.32854,-0.739187 0.63641,-1.494235 0.91081,-2.27342 0.25356,-0.72743 0.48622,-1.467495 0.70319,-2.216411 0.23058,-0.803003 0.45347,-1.610597 0.63966,-2.434914 0.14926,-0.653654 0.29218,-1.310041 0.41438,-1.97411 0.14032,-0.753521 0.27314,-1.509611 0.39012,-2.2705 0.0837,-0.550441 0.16216,-1.102299 0.22844,-1.657143 0.0781,-0.651388 0.1528,-1.30356 0.2158,-1.957986 0.0612,-0.653271 0.11443,-1.307826 0.15831,-1.963676 0.0506,-0.766069 0.0933,-1.53307 0.11755,-2.301603 0.0239,-0.7286 0.0409,-1.457546 0.0478,-2.186843 0,0 -2.3926,-0.004 -2.3926,-0.004 z"
         inkscape:export-xdpi="96"
         inkscape:export-ydpi="96" />
      <circle
         style="fill:#449dd1;stroke:#000000;stroke-width:0;stroke-miterlimit:4;stroke-dasharray:none;fill-opacity:1"
         id="path172-6"
         cx="68.193558"
         cy="57.278305"
         r="4.0660758"
         inkscape:export-xdpi="96"
         inkscape:export-ydpi="96" />
      <circle
         style="fill:#f45b69;stroke:#000000;stroke-width:0;stroke-miterlimit:4;stroke-dasharray:none;fill-opacity:1"
         id="path172-7-0"
         cx="68.511063"
         cy="82.089554"
         r="6.8275914"
         inkscape:export-xdpi="96"
         inkscape:export-ydpi="96" />
      <circle
         style="fill:#449dd1;stroke:#000000;stroke-width:0;fill-opacity:1;stroke-miterlimit:4;stroke-dasharray:none"
         id="path172-5-6"
         cx="73.901825"
         cy="43.942078"
         r="8.6318245"
         inkscape:export-xdpi="96"
         inkscape:export-ydpi="96" />
      <circle
         style="fill:#f45b69;stroke:#000000;stroke-width:0;stroke-miterlimit:4;stroke-dasharray:none;fill-opacity:1"
         id="path172-7-3-2"
         cx="69.803635"
         cy="70.059563"
         r="3.071032"
         inkscape:export-xdpi="96"
         inkscape:export-ydpi="96" />
      <circle
         style="fill:#f45b69;stroke:#000000;stroke-width:0;stroke-miterlimit:4;stroke-dasharray:none;fill-opacity:1"
         id="path172-7-3-5-6"
         cx="79.258034"
         cy="72.856293"
         r="4.7536888"
         inkscape:export-xdpi="96"
         inkscape:export-ydpi="96" />
    </g>
    <rect
       style="opacity:1;fill:#000000;fill-opacity:1;fill-rule:nonzero;stroke:#000000;stroke-width:0;stroke-miterlimit:4;stroke-dasharray:none"
       id="rect1598"
       width="35.529064"
       height="66.869484"
       x="100.34408"
       y="28.539991" />
    <path
       style="fill:#ffffff;fill-opacity:1;stroke:#000000;stroke-width:0;stroke-miterlimit:4;stroke-dasharray:none"
       id="path170-3-8"
       d="m 131.21629,32.800931 c -0.007,0.725815 -0.0238,1.451278 -0.0478,2.176396 -0.0242,0.763695 -0.0669,1.525841 -0.11749,2.287051 -0.0437,0.651843 -0.097,1.302382 -0.15821,1.951603 -0.0631,0.650665 -0.13776,1.299093 -0.21568,1.94675 -0.0662,0.550265 -0.14459,1.097504 -0.22825,1.643301 -0.11689,0.756167 -0.24964,1.507494 -0.38988,2.256246 -0.12177,0.658483 -0.26506,1.308926 -0.41403,1.956857 -0.18604,0.816664 -0.40887,1.616482 -0.63909,2.411759 -0.21593,0.741763 -0.44806,1.474228 -0.70248,2.193151 -0.27342,0.769112 -0.58115,1.512738 -0.90962,2.2406 -0.44014,0.978387 -0.94469,1.898135 -1.46835,2.796222 -0.30645,0.51797 -0.61913,1.029713 -0.96688,1.497791 -0.46094,0.593534 -0.94425,1.155093 -1.4375,1.698571 -0.42143,0.445085 -0.8646,0.852087 -1.32051,1.229151 -0.44858,0.352303 -0.90439,0.68992 -1.37602,0.982191 -0.64016,0.370787 -1.29553,0.689971 -1.96218,0.960624 -0.68986,0.263969 -1.39198,0.46557 -2.09975,0.617194 -0.73168,0.134107 -1.468,0.212762 -2.20102,0.332026 -0.68978,0.120045 -1.37485,0.288014 -2.041,0.559587 -0.74511,0.318459 -1.46401,0.727253 -2.161,1.203341 -0.44165,0.299353 -0.855,0.663718 -1.25387,1.056324 -0.26681,0.262559 -0.51921,0.550454 -0.76513,0.84775 -0.23581,0.284593 -0.45672,0.590216 -0.67349,0.901033 -0.24568,0.353403 -0.47957,0.721273 -0.70374,1.099913 -0.24123,0.405948 -0.46127,0.833598 -0.67868,1.263206 -0.25524,0.507521 -0.48188,1.039341 -0.70065,1.576759 -0.24278,0.597344 -0.46605,1.208508 -0.67828,1.826696 -0.19569,0.5767 -0.36425,1.16931 -0.52917,1.76313 -0.13029,0.46892 -0.25121,0.94241 -0.36489,1.41917 -0.0678,0.28548 -0.13043,0.57314 -0.1911,0.86153 -0.0538,0.25721 -0.10496,0.51544 -0.15477,0.77413 -0.0566,0.29497 -0.10987,0.59111 -0.162,0.8876 -0.0706,0.40566 -0.13617,0.812904 -0.19938,1.220791 -0.0458,0.29617 -0.0876,0.59339 -0.12753,0.8911 -0.0488,0.36424 -0.0925,0.729646 -0.13548,1.095226 -0.0598,0.50635 -0.11109,1.01443 -0.15944,1.523 -0.0455,0.48633 -0.0853,0.97361 -0.12037,1.46151 -0.037,0.52963 -0.0655,1.06022 -0.0912,1.59105 -0.0372,0.78181 -0.0469,1.56544 -0.057,2.34858 -0.004,0.33241 -0.007,0.66486 -0.005,0.99731 0,0 2.3926,-0.002 2.3926,-0.002 v 0 c -0.002,-0.32968 0.002,-0.65935 0.005,-0.989 0.01,-0.77791 0.0197,-1.55633 0.0569,-2.3329 0.0257,-0.52738 0.0542,-1.05454 0.0912,-1.5807 0.0351,-0.48456 0.0748,-0.96852 0.12028,-1.4515 0.0483,-0.50536 0.0996,-1.01021 0.15933,-1.51336 0.0428,-0.36317 0.0866,-0.726166 0.1354,-1.087966 0.0399,-0.29478 0.0817,-0.58905 0.1274,-0.8823 0.0632,-0.404957 0.12853,-0.809341 0.19924,-1.212021 0.0521,-0.29416 0.10521,-0.58799 0.16187,-0.88059 0.0498,-0.25622 0.10077,-0.51201 0.15462,-0.76672 0.0605,-0.28462 0.12318,-0.56843 0.19085,-0.85011 0.11386,-0.47155 0.23485,-0.93985 0.36451,-1.40387 0.16426,-0.58589 0.33205,-1.17061 0.52844,-1.738396 0.21225,-0.610565 0.43539,-1.214132 0.67749,-1.804097 0.21821,-0.527311 0.44432,-1.048944 0.69936,-1.545501 0.21626,-0.421978 0.4364,-0.840703 0.67747,-1.237581 0.22485,-0.368921 0.45751,-0.72904 0.70235,-1.073931 0.216,-0.301941 0.43676,-0.597756 0.6718,-0.872696 0.24554,-0.286406 0.49741,-0.56302 0.76294,-0.814989 0.39824,-0.375686 0.81265,-0.717988 1.24994,-1.004704 0.69625,-0.455178 1.41345,-0.847819 2.15572,-1.144324 0.66827,-0.238313 1.34913,-0.401816 2.03579,-0.508474 0.73454,-0.111969 1.47224,-0.192071 2.20272,-0.3481 0.70922,-0.169788 1.4143,-0.376833 2.10403,-0.660243 0.66778,-0.288354 1.32816,-0.611944 1.96625,-1.00652 0.47028,-0.312278 0.93222,-0.64873 1.37898,-1.019434 0.45601,-0.394024 0.90402,-0.807339 1.32345,-1.271023 0.49406,-0.555305 0.98323,-1.121044 1.43963,-1.73337 0.34334,-0.486782 0.66046,-1.005424 0.96878,-1.533354 0.52467,-0.911085 1.02924,-1.844438 1.47009,-2.83515 0.32854,-0.739187 0.63641,-1.494235 0.91081,-2.27342 0.25356,-0.72743 0.48622,-1.467495 0.70319,-2.216411 0.23058,-0.803003 0.45347,-1.610597 0.63966,-2.434914 0.14926,-0.653654 0.29218,-1.310041 0.41438,-1.97411 0.14032,-0.753521 0.27314,-1.509611 0.39012,-2.2705 0.0837,-0.550441 0.16216,-1.102299 0.22844,-1.657143 0.0781,-0.651388 0.1528,-1.30356 0.2158,-1.957986 0.0612,-0.653271 0.11443,-1.307826 0.15831,-1.963676 0.0506,-0.766069 0.0933,-1.53307 0.11755,-2.301603 0.0239,-0.7286 0.0409,-1.457546 0.0478,-2.186843 0,0 -2.3926,-0.004 -2.3926,-0.004 z"
       inkscape:export-xdpi="96"
       inkscape:export-ydpi="96" />
    <circle
       style="fill:#ffffff;fill-opacity:1;stroke:#000000;stroke-width:0;stroke-miterlimit:4;stroke-dasharray:none"
       id="path172-6-7"
       cx="114.43625"
       cy="57.278305"
       r="4.0660758"
       inkscape:export-xdpi="96"
       inkscape:export-ydpi="96" />
    <circle
       style="fill:#ffffff;fill-opacity:1;stroke:#000000;stroke-width:0;stroke-miterlimit:4;stroke-dasharray:none"
       id="path172-7-0-9"
       cx="114.75375"
       cy="82.089554"
       r="6.8275914"
       inkscape:export-xdpi="96"
       inkscape:export-ydpi="96" />
    <circle
       style="fill:#ffffff;fill-opacity:1;stroke:#000000;stroke-width:0;stroke-miterlimit:4;stroke-dasharray:none"
       id="path172-5-6-2"
       cx="120.14452"
       cy="43.942078"
       r="8.6318245"
       inkscape:export-xdpi="96"
       inkscape:export-ydpi="96" />
    <circle
       style="fill:#ffffff;fill-opacity:1;stroke:#000000;stroke-width:0;stroke-miterlimit:4;stroke-dasharray:none"
       id="path172-7-3-2-0"
       cx="116.04633"
       cy="70.059563"
       r="3.071032"
       inkscape:export-xdpi="96"
       inkscape:export-ydpi="96" />
    <circle
       style="fill:#ffffff;fill-opacity:1;stroke:#000000;stroke-width:0;stroke-miterlimit:4;stroke-dasharray:none"
       id="path172-7-3-5-6-2"
       cx="125.50072"
       cy="72.856293"
       r="4.7536888"
       inkscape:export-xdpi="96"
       inkscape:export-ydpi="96" />
    <path
       style="fill:#2d1e2f;fill-opacity:1;stroke:#000000;stroke-width:0;stroke-miterlimit:4;stroke-dasharray:none"
       id="path170-3-7"
       d="m 178.77604,32.801621 c -0.007,0.725815 -0.0238,1.451278 -0.0478,2.176396 -0.0242,0.763695 -0.0669,1.525841 -0.11749,2.287051 -0.0437,0.651843 -0.097,1.302382 -0.15821,1.951603 -0.0631,0.650665 -0.13776,1.299093 -0.21568,1.94675 -0.0662,0.550265 -0.14459,1.097504 -0.22825,1.643301 -0.11689,0.756167 -0.24964,1.507494 -0.38988,2.256246 -0.12177,0.658483 -0.26506,1.308926 -0.41403,1.956857 -0.18604,0.816664 -0.40887,1.616482 -0.63909,2.411759 -0.21593,0.741763 -0.44806,1.474228 -0.70248,2.193151 -0.27342,0.769112 -0.58115,1.512738 -0.90962,2.2406 -0.44014,0.978387 -0.94469,1.898135 -1.46835,2.796222 -0.30645,0.51797 -0.61913,1.029713 -0.96688,1.497791 -0.46094,0.593534 -0.94425,1.155093 -1.4375,1.698571 -0.42143,0.445085 -0.8646,0.852087 -1.32051,1.229151 -0.44858,0.352303 -0.90439,0.68992 -1.37602,0.982191 -0.64016,0.370787 -1.29553,0.689971 -1.96218,0.960624 -0.68986,0.263969 -1.39198,0.46557 -2.09975,0.617194 -0.73168,0.134107 -1.468,0.212762 -2.20102,0.332026 -0.68978,0.120045 -1.37485,0.288014 -2.041,0.559587 -0.74511,0.318459 -1.46401,0.727253 -2.161,1.203341 -0.44165,0.299353 -0.855,0.663718 -1.25387,1.056324 -0.26681,0.262559 -0.51921,0.550454 -0.76513,0.84775 -0.23581,0.284593 -0.45672,0.590216 -0.67349,0.901033 -0.24568,0.353403 -0.47957,0.721273 -0.70374,1.099913 -0.24123,0.405948 -0.46127,0.833598 -0.67868,1.263206 -0.25524,0.507521 -0.48188,1.039341 -0.70065,1.576759 -0.24278,0.597344 -0.46605,1.208508 -0.67828,1.826696 -0.19569,0.5767 -0.36425,1.16931 -0.52917,1.76313 -0.13029,0.46892 -0.25121,0.94241 -0.36489,1.41917 -0.0678,0.28548 -0.13043,0.57314 -0.1911,0.86153 -0.0538,0.25721 -0.10496,0.51544 -0.15477,0.77413 -0.0566,0.29497 -0.10987,0.59111 -0.162,0.8876 -0.0706,0.40566 -0.13617,0.812904 -0.19938,1.220791 -0.0458,0.29617 -0.0876,0.59339 -0.12753,0.8911 -0.0488,0.36424 -0.0925,0.729646 -0.13548,1.095226 -0.0598,0.50635 -0.11109,1.01443 -0.15944,1.523 -0.0455,0.48633 -0.0853,0.97361 -0.12037,1.46151 -0.037,0.52963 -0.0655,1.06022 -0.0912,1.59105 -0.0372,0.78181 -0.0469,1.56544 -0.057,2.34858 -0.004,0.33241 -0.007,0.66486 -0.005,0.99731 0,0 2.3926,-0.002 2.3926,-0.002 v 0 c -0.002,-0.32968 0.002,-0.65935 0.005,-0.989 0.01,-0.77791 0.0197,-1.55633 0.0569,-2.3329 0.0257,-0.52738 0.0542,-1.05454 0.0912,-1.5807 0.0351,-0.48456 0.0748,-0.96852 0.12028,-1.4515 0.0483,-0.50536 0.0996,-1.01021 0.15933,-1.51336 0.0428,-0.36317 0.0866,-0.726166 0.1354,-1.087966 0.0399,-0.29478 0.0817,-0.58905 0.1274,-0.8823 0.0632,-0.404957 0.12853,-0.809341 0.19924,-1.212021 0.0521,-0.29416 0.10521,-0.58799 0.16187,-0.88059 0.0498,-0.25622 0.10077,-0.51201 0.15462,-0.76672 0.0605,-0.28462 0.12318,-0.56843 0.19085,-0.85011 0.11386,-0.47155 0.23485,-0.93985 0.36451,-1.40387 0.16426,-0.58589 0.33205,-1.17061 0.52844,-1.738396 0.21225,-0.610565 0.43539,-1.214132 0.67749,-1.804097 0.21821,-0.527311 0.44432,-1.048944 0.69936,-1.545501 0.21626,-0.421978 0.4364,-0.840703 0.67747,-1.237581 0.22485,-0.368921 0.45751,-0.72904 0.70235,-1.073931 0.216,-0.301941 0.43676,-0.597756 0.6718,-0.872696 0.24554,-0.286406 0.49741,-0.56302 0.76294,-0.814989 0.39824,-0.375686 0.81265,-0.717988 1.24994,-1.004704 0.69625,-0.455178 1.41345,-0.847819 2.15572,-1.144324 0.66827,-0.238313 1.34913,-0.401816 2.03579,-0.508474 0.73454,-0.111969 1.47224,-0.192071 2.20272,-0.3481 0.70922,-0.169788 1.4143,-0.376833 2.10403,-0.660243 0.66778,-0.288354 1.32816,-0.611944 1.96625,-1.00652 0.47028,-0.312278 0.93222,-0.64873 1.37898,-1.019434 0.45601,-0.394024 0.90402,-0.807339 1.32345,-1.271023 0.49406,-0.555305 0.98323,-1.121044 1.43963,-1.73337 0.34334,-0.486782 0.66046,-1.005424 0.96878,-1.533354 0.52467,-0.911085 1.02924,-1.844438 1.47009,-2.83515 0.32854,-0.739187 0.63641,-1.494235 0.91081,-2.27342 0.25356,-0.72743 0.48622,-1.467495 0.70319,-2.216411 0.23058,-0.803003 0.45347,-1.610597 0.63966,-2.434914 0.14926,-0.653654 0.29218,-1.310041 0.41438,-1.97411 0.14032,-0.753521 0.27314,-1.509611 0.39012,-2.2705 0.0837,-0.550441 0.16216,-1.102299 0.22844,-1.657143 0.0781,-0.651388 0.1528,-1.30356 0.2158,-1.957986 0.0612,-0.653271 0.11443,-1.307826 0.15831,-1.963676 0.0506,-0.766069 0.0933,-1.53307 0.11755,-2.301603 0.0239,-0.7286 0.0409,-1.457546 0.0478,-2.186843 0,0 -2.3926,-0.004 -2.3926,-0.004 z"
       inkscape:export-xdpi="96"
       inkscape:export-ydpi="96" />
    <circle
       style="fill:#449dd1;fill-opacity:1;stroke:#000000;stroke-width:0;stroke-miterlimit:4;stroke-dasharray:none"
       id="path172-6-5"
       cx="161.996"
       cy="57.278996"
       r="4.0660758"
       inkscape:export-xdpi="96"
       inkscape:export-ydpi="96" />
    <circle
       style="fill:#f45b69;fill-opacity:1;stroke:#000000;stroke-width:0;stroke-miterlimit:4;stroke-dasharray:none"
       id="path172-7-0-92"
       cx="162.31351"
       cy="82.09024"
       r="6.8275914"
       inkscape:export-xdpi="96"
       inkscape:export-ydpi="96" />
    <circle
       style="fill:#449dd1;fill-opacity:1;stroke:#000000;stroke-width:0;stroke-miterlimit:4;stroke-dasharray:none"
       id="path172-5-6-28"
       cx="167.70427"
       cy="43.942768"
       r="8.6318245"
       inkscape:export-xdpi="96"
       inkscape:export-ydpi="96" />
    <circle
       style="fill:#f45b69;fill-opacity:1;stroke:#000000;stroke-width:0;stroke-miterlimit:4;stroke-dasharray:none"
       id="path172-7-3-2-9"
       cx="163.60608"
       cy="70.060249"
       r="3.071032"
       inkscape:export-xdpi="96"
       inkscape:export-ydpi="96" />
    <circle
       style="fill:#f45b69;fill-opacity:1;stroke:#000000;stroke-width:0;stroke-miterlimit:4;stroke-dasharray:none"
       id="path172-7-3-5-6-7"
       cx="173.06047"
       cy="72.856979"
       r="4.7536888"
       inkscape:export-xdpi="96"
       inkscape:export-ydpi="96" />
    <path
       style="fill-opacity:1;stroke:#000000;stroke-width:0;stroke-miterlimit:4;stroke-dasharray:none;fill:#4c4c9d"
       id="path170-3-70"
       d="m 40.37677,110.3699 c -0.007,0.72581 -0.0238,1.45128 -0.0478,2.1764 -0.0242,0.76369 -0.0669,1.52584 -0.11749,2.28705 -0.0437,0.65184 -0.097,1.30238 -0.15821,1.9516 -0.0631,0.65066 -0.13776,1.29909 -0.21568,1.94675 -0.0662,0.55026 -0.14459,1.0975 -0.22825,1.6433 -0.11689,0.75617 -0.24964,1.50749 -0.38988,2.25625 -0.12177,0.65848 -0.26506,1.30892 -0.41403,1.95685 -0.18604,0.81667 -0.40887,1.61649 -0.63909,2.41176 -0.21593,0.74177 -0.44806,1.47423 -0.70248,2.19315 -0.27342,0.76912 -0.58115,1.51274 -0.90962,2.2406 -0.44014,0.97839 -0.94469,1.89814 -1.46835,2.79623 -0.30645,0.51797 -0.61913,1.02971 -0.96688,1.49779 -0.46094,0.59353 -0.94425,1.15509 -1.4375,1.69857 -0.42143,0.44508 -0.8646,0.85208 -1.32051,1.22915 -0.44858,0.3523 -0.90439,0.68992 -1.37602,0.98219 -0.64016,0.37079 -1.29553,0.68997 -1.96218,0.96062 -0.68986,0.26397 -1.39198,0.46557 -2.09975,0.6172 -0.73168,0.1341 -1.468,0.21276 -2.20102,0.33202 -0.68978,0.12005 -1.37485,0.28802 -2.041,0.55959 -0.74511,0.31846 -1.46401,0.72725 -2.161,1.20334 -0.44165,0.29935 -0.855,0.66372 -1.25387,1.05633 -0.26681,0.26255 -0.51921,0.55045 -0.76513,0.84775 -0.23581,0.28459 -0.45672,0.59021 -0.67349,0.90103 -0.24568,0.3534 -0.47957,0.72127 -0.70374,1.09991 -0.24123,0.40595 -0.46127,0.8336 -0.67868,1.26321 -0.25524,0.50752 -0.48188,1.03934 -0.70065,1.57676 -0.24278,0.59734 -0.46605,1.2085 -0.67828,1.82669 -0.19569,0.5767 -0.36425,1.16931 -0.52917,1.76313 -0.13029,0.46892 -0.25121,0.94241 -0.36489,1.41917 -0.0678,0.28548 -0.13043,0.57314 -0.1911,0.86153 -0.0538,0.25721 -0.10496,0.51544 -0.15477,0.77413 -0.0566,0.29497 -0.10987,0.59111 -0.162,0.8876 -0.0706,0.40566 -0.13617,0.81291 -0.19938,1.22079 -0.0458,0.29617 -0.0876,0.59339 -0.12753,0.8911 -0.0488,0.36424 -0.0925,0.72965 -0.13548,1.09523 -0.0598,0.50635 -0.11109,1.01443 -0.15944,1.523 -0.0455,0.48633 -0.0853,0.97361 -0.12037,1.46151 -0.037,0.52963 -0.0655,1.06022 -0.0912,1.59105 -0.0372,0.78181 -0.0469,1.56544 -0.057,2.34858 -0.004,0.33241 -0.007,0.66486 -0.005,0.99731 0,0 2.3926,-0.002 2.3926,-0.002 v 0 c -0.002,-0.32968 0.002,-0.65935 0.005,-0.989 0.01,-0.77791 0.0197,-1.55633 0.0569,-2.3329 0.0257,-0.52738 0.0542,-1.05454 0.0912,-1.5807 0.0351,-0.48456 0.0748,-0.96852 0.12028,-1.4515 0.0483,-0.50536 0.0996,-1.01021 0.15933,-1.51336 0.0428,-0.36317 0.0866,-0.72617 0.1354,-1.08797 0.0399,-0.29478 0.0817,-0.58905 0.1274,-0.8823 0.0632,-0.40495 0.12853,-0.80934 0.19924,-1.21202 0.0521,-0.29416 0.10521,-0.58799 0.16187,-0.88059 0.0498,-0.25622 0.10077,-0.51201 0.15462,-0.76672 0.0605,-0.28462 0.12318,-0.56843 0.19085,-0.85011 0.11386,-0.47155 0.23485,-0.93985 0.36451,-1.40387 0.16426,-0.58589 0.33205,-1.17061 0.52844,-1.73839 0.21225,-0.61057 0.43539,-1.21414 0.67749,-1.8041 0.21821,-0.52731 0.44432,-1.04894 0.69936,-1.5455 0.21626,-0.42198 0.4364,-0.8407 0.67747,-1.23758 0.22485,-0.36892 0.45751,-0.72904 0.70235,-1.07393 0.216,-0.30194 0.43676,-0.59776 0.6718,-0.8727 0.24554,-0.28641 0.49741,-0.56302 0.76294,-0.81499 0.39824,-0.37568 0.81265,-0.71799 1.24994,-1.0047 0.69625,-0.45518 1.41345,-0.84782 2.15572,-1.14433 0.66827,-0.23831 1.34913,-0.40181 2.03579,-0.50847 0.73454,-0.11197 1.47224,-0.19207 2.20272,-0.3481 0.70922,-0.16979 1.4143,-0.37683 2.10403,-0.66024 0.66778,-0.28836 1.32816,-0.61195 1.96625,-1.00652 0.47028,-0.31228 0.93222,-0.64873 1.37898,-1.01944 0.45601,-0.39402 0.90402,-0.80734 1.32345,-1.27102 0.49406,-0.55531 0.98323,-1.12104 1.43963,-1.73337 0.34334,-0.48678 0.66046,-1.00542 0.96878,-1.53335 0.52467,-0.91109 1.02924,-1.84444 1.47009,-2.83515 0.32854,-0.73919 0.63641,-1.49424 0.91081,-2.27342 0.25356,-0.72743 0.48622,-1.4675 0.70319,-2.21642 0.23058,-0.803 0.45347,-1.61059 0.63966,-2.43491 0.14926,-0.65365 0.29218,-1.31004 0.41438,-1.97411 0.14032,-0.75352 0.27314,-1.50961 0.39012,-2.2705 0.0837,-0.55044 0.16216,-1.1023 0.22844,-1.65714 0.0781,-0.65139 0.1528,-1.30356 0.2158,-1.95799 0.0612,-0.65327 0.11443,-1.30782 0.15831,-1.96367 0.0506,-0.76607 0.0933,-1.53307 0.11755,-2.30161 0.0239,-0.7286 0.0409,-1.45754 0.0478,-2.18684 0,0 -2.3926,-0.004 -2.3926,-0.004 z"
       inkscape:export-xdpi="96"
       inkscape:export-ydpi="96" />
    <circle
       style="fill:#449dd1;fill-opacity:1;stroke:#000000;stroke-width:0;stroke-miterlimit:4;stroke-dasharray:none"
       id="path172-6-9"
       cx="23.596729"
       cy="134.84727"
       r="4.0660758"
       inkscape:export-xdpi="96"
       inkscape:export-ydpi="96" />
    <circle
       style="fill:#f45b69;fill-opacity:1;stroke:#000000;stroke-width:0;stroke-miterlimit:4;stroke-dasharray:none"
       id="path172-7-0-3"
       cx="23.914234"
       cy="159.65852"
       r="6.8275914"
       inkscape:export-xdpi="96"
       inkscape:export-ydpi="96" />
    <circle
       style="fill:#449dd1;fill-opacity:1;stroke:#000000;stroke-width:0;stroke-miterlimit:4;stroke-dasharray:none"
       id="path172-5-6-6"
       cx="29.304996"
       cy="121.51105"
       r="8.6318245"
       inkscape:export-xdpi="96"
       inkscape:export-ydpi="96" />
    <circle
       style="fill:#f45b69;fill-opacity:1;stroke:#000000;stroke-width:0;stroke-miterlimit:4;stroke-dasharray:none"
       id="path172-7-3-2-06"
       cx="25.206806"
       cy="147.62852"
       r="3.071032"
       inkscape:export-xdpi="96"
       inkscape:export-ydpi="96" />
    <circle
       style="fill:#f45b69;fill-opacity:1;stroke:#000000;stroke-width:0;stroke-miterlimit:4;stroke-dasharray:none"
       id="path172-7-3-5-6-26"
       cx="34.661205"
       cy="150.42526"
       r="4.7536888"
       inkscape:export-xdpi="96"
       inkscape:export-ydpi="96" />
  </g>
</svg>
