<?xml version="1.0" encoding="UTF-8" standalone="no"?>
<svg
   xmlns:dc="http://purl.org/dc/elements/1.1/"
   xmlns:cc="http://creativecommons.org/ns#"
   xmlns:rdf="http://www.w3.org/1999/02/22-rdf-syntax-ns#"
   xmlns:svg="http://www.w3.org/2000/svg"
   xmlns="http://www.w3.org/2000/svg"
   width="31.001127mm"
   height="58.346222mm"
   viewBox="0 0 31.001127 58.346222"
   version="1.1"
   id="svg8">
  <defs
     id="defs2" />
  <metadata
     id="metadata5">
    <rdf:RDF>
      <cc:Work
         rdf:about="">
        <dc:format>image/svg+xml</dc:format>
        <dc:type
           rdf:resource="http://purl.org/dc/dcmitype/StillImage" />
        <dc:title></dc:title>
      </cc:Work>
    </rdf:RDF>
  </metadata>
  <g
     id="layer1"
     transform="translate(-59.338722,-97.070937)">
    <path
       style="fill:#ffffff;fill-opacity:1;stroke:#000000;stroke-width:0;stroke-miterlimit:4;stroke-dasharray:none"
       id="path170-3-8"
       d="m 87.947269,97.070937 c -0.007,0.72582 -0.0238,1.45128 -0.0478,2.1764 -0.0242,0.763693 -0.0669,1.525843 -0.11749,2.287053 -0.0437,0.65184 -0.097,1.30238 -0.15821,1.9516 -0.0631,0.65067 -0.13776,1.29909 -0.21568,1.94675 -0.0662,0.55027 -0.14459,1.09751 -0.22825,1.6433 -0.11689,0.75617 -0.24964,1.5075 -0.38988,2.25625 -0.12177,0.65848 -0.26506,1.30892 -0.41403,1.95686 -0.18604,0.81666 -0.40887,1.61648 -0.63909,2.41175 -0.21593,0.74177 -0.44806,1.47423 -0.70248,2.19316 -0.27342,0.76911 -0.58115,1.51273 -0.90962,2.2406 -0.44014,0.97838 -0.94469,1.89813 -1.46835,2.79622 -0.30645,0.51797 -0.61913,1.02971 -0.96688,1.49779 -0.46094,0.59353 -0.94425,1.15509 -1.4375,1.69857 -0.42143,0.44508 -0.8646,0.85209 -1.32051,1.22915 -0.44858,0.3523 -0.90439,0.68992 -1.37602,0.98219 -0.64016,0.37079 -1.29553,0.68997 -1.96218,0.96063 -0.68986,0.26397 -1.39198,0.46557 -2.09975,0.61719 -0.73168,0.13411 -1.468,0.21276 -2.20102,0.33203 -0.68978,0.12004 -1.37485,0.28801 -2.041,0.55958 -0.74511,0.31846 -1.46401,0.72726 -2.161,1.20334 -0.44165,0.29936 -0.855,0.66372 -1.25387,1.05633 -0.26681,0.26256 -0.51921,0.55045 -0.76513,0.84775 -0.23581,0.28459 -0.45672,0.59021 -0.67349,0.90103 -0.24568,0.3534 -0.47957,0.72127 -0.70374,1.09991 -0.24123,0.40595 -0.46127,0.8336 -0.67868,1.26321 -0.25524,0.50752 -0.48188,1.03934 -0.70065,1.57676 -0.24278,0.59734 -0.46605,1.20851 -0.67828,1.82669 -0.19569,0.5767 -0.36425,1.16931 -0.52917,1.76313 -0.13029,0.46892 -0.25121,0.94241 -0.36489,1.41917 -0.0678,0.28548 -0.13043,0.57314 -0.1911,0.86153 -0.0538,0.25721 -0.10496,0.51544 -0.15477,0.77413 -0.0566,0.29497 -0.10987,0.59111 -0.162,0.8876 -0.0706,0.40566 -0.13617,0.81291 -0.19938,1.2208 -0.0458,0.29617 -0.0876,0.59339 -0.12753,0.8911 -0.0488,0.36424 -0.0925,0.72964 -0.13548,1.09522 -0.0598,0.50635 -0.11109,1.01443 -0.15944,1.523 -0.0455,0.48633 -0.0853,0.97361 -0.12037,1.46151 -0.037,0.52963 -0.0655,1.06022 -0.0912,1.59105 -0.0372,0.78181 -0.0469,1.56544 -0.057,2.34858 -0.004,0.33241 -0.007,0.66486 -0.005,0.99731 0,0 2.3926,-0.002 2.3926,-0.002 v 0 c -0.002,-0.32968 0.002,-0.65935 0.005,-0.989 0.01,-0.77791 0.0197,-1.55633 0.0569,-2.3329 0.0257,-0.52738 0.0542,-1.05454 0.0912,-1.5807 0.0351,-0.48456 0.0748,-0.96852 0.12028,-1.4515 0.0483,-0.50536 0.0996,-1.01021 0.15933,-1.51336 0.0428,-0.36317 0.0866,-0.72616 0.1354,-1.08796 0.0399,-0.29478 0.0817,-0.58905 0.1274,-0.8823 0.0632,-0.40496 0.12853,-0.80935 0.19924,-1.21203 0.0521,-0.29416 0.10521,-0.58799 0.16187,-0.88058 0.0498,-0.25623 0.10077,-0.51202 0.15462,-0.76673 0.0605,-0.28462 0.12318,-0.56843 0.19085,-0.85011 0.11386,-0.47155 0.23485,-0.93985 0.36451,-1.40387 0.16426,-0.58589 0.33205,-1.17061 0.52844,-1.73839 0.21225,-0.61057 0.43539,-1.21413 0.67749,-1.8041 0.21821,-0.52731 0.44432,-1.04894 0.69936,-1.5455 0.21626,-0.42198 0.4364,-0.8407 0.67747,-1.23758 0.22485,-0.36892 0.45751,-0.72904 0.70235,-1.07393 0.216,-0.30194 0.43676,-0.59776 0.6718,-0.8727 0.24554,-0.2864 0.49741,-0.56302 0.76294,-0.81499 0.39824,-0.37568 0.81265,-0.71798 1.24994,-1.0047 0.69625,-0.45518 1.41345,-0.84782 2.15572,-1.14432 0.66827,-0.23832 1.34913,-0.40182 2.03579,-0.50848 0.73454,-0.11197 1.47224,-0.19207 2.20272,-0.3481 0.70922,-0.16979 1.4143,-0.37683 2.10403,-0.66024 0.66778,-0.28836 1.32816,-0.61195 1.96625,-1.00652 0.47028,-0.31228 0.93222,-0.64873 1.37898,-1.01944 0.45601,-0.39402 0.90402,-0.80733 1.32345,-1.27102 0.49406,-0.5553 0.98323,-1.12104 1.43963,-1.73337 0.34334,-0.48678 0.66046,-1.00542 0.96878,-1.53335 0.52467,-0.91109 1.02924,-1.84444 1.47009,-2.83515 0.32854,-0.73919 0.63641,-1.49424 0.91081,-2.27342 0.25356,-0.72743 0.48622,-1.4675 0.70319,-2.21641 0.23058,-0.80301 0.45347,-1.6106 0.63966,-2.43492 0.14926,-0.65365 0.29218,-1.31004 0.41438,-1.97411 0.14032,-0.75352 0.27314,-1.50961 0.39012,-2.2705 0.0837,-0.55044 0.16216,-1.1023 0.22844,-1.65714 0.0781,-0.65139 0.1528,-1.30356 0.2158,-1.95799 0.0612,-0.65327 0.11443,-1.30782 0.15831,-1.96367 0.0506,-0.76607 0.0933,-1.53307 0.11755,-2.301613 0.0239,-0.7286 0.0409,-1.45754 0.0478,-2.18684 0,0 -2.3926,-0.004 -2.3926,-0.004 z" />
    <circle
       style="fill:#ffffff;fill-opacity:1;stroke:#000000;stroke-width:0;stroke-miterlimit:4;stroke-dasharray:none"
       id="path172-6-7"
       cx="71.167236"
       cy="121.54832"
       r="4.0660758" />
    <circle
       style="fill:#ffffff;fill-opacity:1;stroke:#000000;stroke-width:0;stroke-miterlimit:4;stroke-dasharray:none"
       id="path172-7-0-9"
       cx="71.484734"
       cy="146.35956"
       r="6.8275914" />
    <circle
       style="fill:#ffffff;fill-opacity:1;stroke:#000000;stroke-width:0;stroke-miterlimit:4;stroke-dasharray:none"
       id="path172-5-6-2"
       cx="76.875504"
       cy="108.21209"
       r="8.6318245" />
    <circle
       style="fill:#ffffff;fill-opacity:1;stroke:#000000;stroke-width:0;stroke-miterlimit:4;stroke-dasharray:none"
       id="path172-7-3-2-0"
       cx="72.777313"
       cy="134.32957"
       r="3.071032" />
    <circle
       style="fill:#ffffff;fill-opacity:1;stroke:#000000;stroke-width:0;stroke-miterlimit:4;stroke-dasharray:none"
       id="path172-7-3-5-6-2"
       cx="82.231689"
       cy="137.1263"
       r="4.7536888" />
  </g>
</svg>
